<?xml version="1.0" standalone="no"?>
<!DOCTYPE svg PUBLIC "-//W3C//DTD SVG 20010904//EN"
 "http://www.w3.org/TR/2001/REC-SVG-20010904/DTD/svg10.dtd">
<svg version="1.0" xmlns="http://www.w3.org/2000/svg"
 width="5120.000000pt" height="5120.000000pt" viewBox="0 0 5120.000000 5120.000000"
 preserveAspectRatio="xMidYMid meet">

<g transform="translate(0.000000,5120.000000) scale(0.100000,-0.100000)"
fill="#000000" stroke="none">
<path d="M25150 41324 c-1105 -39 -2088 -165 -3105 -399 -2116 -486 -4173
-1446 -5895 -2751 -239 -181 -263 -200 -440 -343 -2068 -1675 -3688 -3855
-4685 -6306 -893 -2196 -1275 -4572 -1120 -6965 164 -2520 935 -4965 2243
-7115 947 -1555 2150 -2933 3562 -4076 493 -399 1058 -801 1580 -1126 2054
-1276 4329 -2052 6720 -2292 561 -57 946 -75 1590 -75 644 0 1029 18 1590 75
2213 222 4318 901 6270 2022 1403 805 2755 1903 3856 3132 1127 1257 2064
2721 2726 4255 850 1970 1288 4091 1288 6240 0 2149 -438 4270 -1288 6240
-1467 3400 -4135 6211 -7457 7855 -1259 623 -2492 1045 -3871 1325 -731 148
-1476 242 -2319 290 -180 10 -1065 20 -1245 14z m1205 -994 c1036 -59 1908
-190 2860 -430 1088 -274 2081 -647 3075 -1153 1838 -936 3480 -2267 4782
-3877 161 -199 338 -430 338 -440 0 -6 -931 -743 -1606 -1270 -67 -52 -362
-284 -656 -515 -293 -231 -1028 -808 -1633 -1284 -605 -475 -1122 -882 -1148
-904 -26 -22 -50 -38 -52 -35 -3 2 15 85 40 184 148 596 214 1260 194 1935
-42 1365 -456 2616 -1157 3494 -120 150 -384 416 -522 525 -400 317 -840 504
-1299 551 -155 16 -433 6 -581 -20 -539 -95 -1019 -362 -1450 -807 -599 -617
-1037 -1526 -1249 -2590 -133 -669 -167 -1438 -95 -2149 105 -1042 446 -2028
951 -2752 226 -324 497 -609 787 -827 185 -139 428 -272 633 -347 65 -23 120
-44 122 -46 5 -3 4 -3 -193 -158 -416 -327 -1342 -1055 -1481 -1165 -88 -69
-414 -326 -725 -570 -311 -244 -626 -491 -700 -550 -74 -59 -306 -241 -515
-405 -209 -164 -768 -604 -1242 -977 -475 -373 -865 -678 -868 -678 -3 0 -5
948 -5 2108 0 1405 -4 2129 -11 2172 -29 182 -157 330 -336 387 -67 21 -92 23
-273 23 l-200 0 0 1130 0 1129 793 3 792 3 55 23 c127 54 228 155 282 283 l23
54 3 2825 c2 3123 8 2864 -61 2993 -35 67 -127 157 -198 192 -250 127 -544 25
-667 -232 l-37 -78 -5 -2545 -5 -2545 -282 -3 -283 -2 0 2518 c0 1635 -4 2538
-10 2573 -15 82 -74 193 -135 253 -66 66 -170 120 -265 137 -199 35 -412 -69
-508 -249 -66 -124 -62 63 -62 -2653 l0 -2466 -62 -19 c-34 -10 -88 -35 -120
-56 -55 -36 -63 -38 -138 -38 l-80 0 0 2458 c0 1596 -4 2482 -10 2527 -27 182
-162 341 -337 395 -72 22 -189 26 -262 9 -118 -27 -252 -130 -309 -237 -67
-125 -62 78 -62 -2664 l0 -2488 -285 0 -285 0 0 2518 c0 2230 -2 2525 -15
2577 -46 175 -196 317 -373 354 -242 50 -483 -90 -565 -329 l-22 -65 -3 -2755
c-2 -1764 1 -2784 7 -2837 24 -195 155 -357 338 -413 63 -19 92 -20 1119 -20
l1054 0 0 -1130 0 -1130 -193 0 c-141 0 -209 -4 -252 -15 -170 -45 -306 -180
-351 -350 -11 -41 -14 -605 -14 -3217 l0 -3167 -207 -164 c-115 -90 -671 -528
-1238 -973 -1604 -1261 -3021 -2375 -3350 -2634 -165 -130 -523 -411 -795
-625 -272 -213 -502 -394 -511 -402 -14 -12 -33 8 -166 174 -286 360 -524 685
-760 1038 -1402 2102 -2235 4517 -2428 7035 -32 419 -39 632 -39 1140 0 769
40 1357 140 2065 417 2952 1689 5652 3712 7880 188 206 741 759 947 947 1926
1749 4198 2934 6715 3502 848 191 1767 309 2695 346 256 10 1043 4 1290 -10z
m3224 -4206 c292 -52 568 -205 835 -464 185 -179 317 -346 467 -591 789 -1288
925 -3334 324 -4879 -303 -778 -755 -1346 -1270 -1596 -220 -107 -416 -151
-630 -140 -370 18 -708 184 -1034 508 -563 558 -961 1492 -1091 2562 -34 283
-44 453 -43 781 0 384 21 662 74 995 160 990 551 1843 1080 2355 404 390 838
548 1288 469z m8479 -2625 c939 -1470 1635 -3188 1986 -4904 211 -1037 300
-1920 300 -2995 0 -705 -29 -1201 -110 -1845 -384 -3075 -1725 -5936 -3850
-8215 -198 -211 -584 -597 -784 -781 -2377 -2195 -5412 -3548 -8620 -3844
-2533 -233 -5064 179 -7355 1198 -1458 648 -2782 1514 -3970 2596 -202 184
-765 741 -765 756 0 9 1426 1139 2154 1706 39 30 706 554 1481 1164 1752 1378
1812 1425 1819 1425 3 0 6 -1104 6 -2454 0 -2420 0 -2455 20 -2518 46 -149
149 -256 305 -319 l60 -24 875 -3 c603 -2 895 1 939 8 174 30 317 151 383 326
l23 59 3 3495 3 3495 117 91 c64 49 342 267 617 484 275 216 568 446 650 511
83 65 395 310 695 546 531 418 2411 1896 3373 2652 263 207 481 377 485 379 4
1 6 -134 4 -300 l-3 -303 -197 -5 c-211 -6 -241 -12 -346 -74 -96 -56 -190
-193 -215 -314 -8 -38 -11 -1537 -11 -5410 0 -5902 -5 -5418 62 -5543 55 -105
150 -184 274 -231 59 -22 62 -23 799 -26 479 -2 768 1 820 7 197 26 361 169
410 356 13 53 15 638 15 5440 0 4532 -2 5388 -14 5432 -23 87 -58 145 -131
219 -110 111 -195 143 -377 144 l-108 0 0 688 0 688 28 26 c29 27 579 459 838
659 89 68 226 176 305 240 150 120 229 183 1204 949 325 255 694 545 820 645
127 100 451 355 720 566 650 511 1915 1505 2344 1843 189 149 470 370 625 492
155 121 488 383 741 582 253 199 464 361 470 359 5 -2 43 -55 83 -118z
m-16080 -8961 l2 -2246 -325 -256 c-179 -141 -328 -256 -330 -256 -7 0 -6
4996 1 5003 3 3 151 5 328 4 l321 -2 3 -2247z m7560 -4455 l2 -4823 -215 0
-215 0 0 4825 0 4825 213 -2 212 -3 3 -4822z m-7558 -1848 l0 -2815 -330 0
-330 0 0 2555 0 2555 68 55 c96 77 587 464 590 465 1 0 2 -1267 2 -2815z"/>
</g>
</svg>
